Coordinates
version=1
nRows=54
nColumns=12
inDegrees=yes

Units are S.I. units (second, meters, Newtons, ...)
Angles are in degrees

endheader
time	SC_y	SC_z	SC_x	AC_y	AC_z	AC_x	GH_y	GH_z	GH_yy	EL_x	PS_y
       0.0              -57.87          11.94          8.355          61.96         -19.27         -19.01          124.2          82.77          121.0          77.61          60.43
   0.04047              -57.87          11.94          8.364          61.96         -19.27         -19.01          124.2          82.77          121.0           77.6          60.44
   0.08095              -57.87          11.95          8.373          61.96         -19.27         -19.01          124.2          82.76          121.0           77.6          60.45
    0.1214              -57.87          11.95          8.383          61.96         -19.27         -19.01          124.1          82.76          121.0          77.59          60.47
    0.1619              -57.86          11.96          8.393          61.95         -19.27         -19.01          124.1          82.75          120.9          77.58          60.48
    0.2024              -57.86          11.96          8.404          61.95         -19.27          -19.0          124.0          82.74          120.9          77.58           60.5
    0.2428              -57.86          11.97          8.416          61.95         -19.27          -19.0          124.0          82.74          120.9          77.57          60.51
    0.2833              -57.85          11.97          8.428          61.94         -19.27          -19.0          123.9          82.73          120.9          77.56          60.53
    0.3238              -57.85          11.98          8.442          61.94         -19.27          -19.0          123.9          82.72          120.9          77.55          60.55
    0.3643              -57.85          11.99          8.456          61.93         -19.27         -18.99          123.8          82.71          120.9          77.54          60.57
    0.4047              -57.84          11.99          8.472          61.93         -19.27         -18.99          123.8          82.71          120.8          77.53          60.59
    0.4452              -57.84           12.0          8.488          61.93         -19.27         -18.99          123.7           82.7          120.8          77.52          60.61
    0.4857              -57.83          12.01          8.506          61.92         -19.27         -18.99          123.6          82.69          120.8          77.51          60.64
    0.5262              -57.83          12.02          8.525          61.91         -19.26         -18.98          123.6          82.68          120.8           77.5          60.67
    0.5666              -57.82          12.03          8.546          61.91         -19.26         -18.98          123.5          82.66          120.7          77.48          60.69
    0.6071              -57.82          12.04          8.569           61.9         -19.26         -18.97          123.4          82.65          120.7          77.47          60.73
    0.6476              -57.81          12.05          8.594          61.89         -19.26         -18.97          123.3          82.64          120.7          77.45          60.76
    0.6881              -57.81          12.06          8.621          61.89         -19.26         -18.97          123.2          82.62          120.6          77.43           60.8
    0.7285               -57.8          12.08           8.65          61.88         -19.26         -18.96          123.1           82.6          120.6          77.41          60.84
     0.769              -57.79          12.09          8.682          61.87         -19.26         -18.95          122.9          82.59          120.5          77.39          60.88
    0.8095              -57.78          12.11          8.718          61.86         -19.26         -18.95          122.8          82.57          120.5          77.37          60.93
      0.85              -57.77          12.12          8.757          61.84         -19.26         -18.94          122.6          82.54          120.4          77.34          60.99
    0.8904              -57.76          12.14            8.8          61.83         -19.26         -18.93          122.5          82.52          120.4          77.31          61.05
    0.9309              -57.75          12.17          8.847          61.82         -19.25         -18.92          122.3          82.49          120.3          77.28          61.11
    0.9714              -57.73          12.19            8.9           61.8         -19.25         -18.91          122.1          82.46          120.2          77.25          61.19
     1.012              -57.72          12.22          8.959          61.78         -19.25          -18.9          121.8          82.43          120.1          77.21          61.27
     1.052               -57.7          12.25          9.025          61.76         -19.25         -18.89          121.6          82.39          120.1          77.16          61.36
     1.093              -57.68          12.28            9.1          61.74         -19.25         -18.88          121.3          82.35          120.0          77.11          61.47
     1.133              -57.66          12.32          9.184          61.72         -19.24         -18.86          120.9           82.3          119.8          77.06          61.58
     1.174              -57.64          12.37          9.279          61.69         -19.24         -18.85          120.5          82.25          119.7          76.99          61.72
     1.214              -57.61          12.42          9.388          61.65         -19.24         -18.83          120.1          82.18          119.5          76.92          61.87
     1.255              -57.58          12.47          9.513          61.62         -19.23          -18.8          119.6          82.11          119.4          76.84          62.04
     1.295              -57.54          12.54          9.658          61.57         -19.23         -18.78          119.0          82.03          119.2          76.74          62.24
     1.336               -57.5          12.62          9.825          61.52         -19.22         -18.75          118.4          81.94          118.9          76.63          62.48
     1.376              -57.45          12.71          10.02          61.46         -19.22         -18.71          117.6          81.82          118.7           76.5          62.75
     1.417              -57.39          12.81          10.25          61.39         -19.21         -18.67          116.6          81.69          118.3          76.34          63.07
     1.457              -57.32          12.94          10.53          61.31          -19.2         -18.62          115.5          81.54          118.0          76.16          63.46
     1.498              -57.24          13.09          10.86          61.21         -19.19         -18.56          114.2          81.35          117.5          75.94          63.91
     1.538              -57.14          13.28          11.26          61.09         -19.18         -18.49          112.6          81.12          116.9          75.67          64.47
     1.578              -57.01           13.5          11.74          60.95         -19.16          -18.4          110.7          80.84          116.3          75.35          65.15
     1.619              -56.86          13.78          12.34          60.76         -19.14         -18.29          108.3           80.5          115.4          74.95          65.99
     1.659              -56.67          14.12          13.09          60.54         -19.12         -18.16          105.3          80.08          114.4          74.45          67.03
       1.7              -56.43          14.56          14.04          60.26         -19.09         -17.99          101.5          79.54          113.1          73.82          68.35
      1.74              -56.12          15.11          15.24          59.89         -19.05         -17.77           96.7          78.86          111.4          73.01          70.02
     1.781              -55.73          15.82          16.78          59.43          -19.0         -17.49          90.56          77.98          109.2          71.99          72.16
     1.821              -55.23          16.73          18.75          58.84         -18.93         -17.14          82.67          76.86          106.5          70.67          74.91
     1.862              -54.59          17.89          21.27          58.08         -18.85         -16.68           72.6          75.43          103.0          68.99          78.42
     1.902              -53.79          19.34          24.43          57.13         -18.75         -16.11          59.93          73.63          98.55          66.88          82.83
     1.943               -52.8          21.12          28.29          55.97         -18.63         -15.41          44.49          71.43          93.17           64.3          88.21
     1.983              -51.67          23.18          32.77          54.62         -18.48          -14.6           26.6          68.89          86.92          61.32          94.44
     2.024              -50.44          25.41          37.61          53.16         -18.33         -13.73          7.228          66.13          80.16          58.08          101.2
     2.064               -49.2          27.64          42.45          51.71         -18.17         -12.85         -12.15          63.38           73.4          54.85          107.9
     2.105              -48.07          29.71          46.93          50.36         -18.02         -12.04         -30.04          60.83          67.16          51.87          114.2
     2.145              -47.09          31.48          50.79           49.2          -17.9         -11.35         -45.47          58.64          61.77          49.29          119.6
